# xmcd
#
# Track frame offsets:
#	150
#	39311
#	51476
#	76915
#	96823
#	127653
#	149761
#	186243
#	214873
#	246491
#	270227
#	288996
#
# Disc length: 4211
#
# Revision: 2
# Processed by: cddbd v1.5.1PL0 Copyright (c) Steve Scherf et al.
# Submitted via: tcd 2.0b
# Normalized: r1:TDELIM( - )
#
DISCID=af10710c
DTITLE=Sasha/Global Underground Ibiza CD01
DYEAR=1900
DGENRE=
TTITLE0=Raff' n' Freddy - Deep Progress
TTITLE1=MRE - The Deep Edge
TTITLE2=Resistance D - Feel High [Humate Mix]
TTITLE3=Dominica - Real Time
TTITLE4=Medway - The Baseline Track
TTITLE5=Sander Kleinenberg - My Lexicon
TTITLE6=Orbital - Norhing Left [Breeder Mix]
TTITLE7=Christian Smith and John Selway - Move!
TTITLE8=Jimpy - Talkin' [Featuring Sarah]
TTITLE9=Space Manoeuvres - Stage One [Pariah Mix]
TTITLE10=Sander Kleinenberg - Sacred
TTITLE11=Natious - Amber
EXTD=
EXTT0=
EXTT1=
EXTT2=
EXTT3=
EXTT4=
EXTT5=
EXTT6=
EXTT7=
EXTT8=
EXTT9=
EXTT10=
EXTT11=
PLAYORDER=
